<svg xmlns="http://www.w3.org/2000/svg"><symbol id="web-yarn-icons-06" viewBox="0 0 16 16"><path fill="#231f20" d="M8.8 7.8v-.6H6.9c-.1-.1-.1-.2-.1-.4H7a.3.3 0 0 1 .1-.2l1.5-2q.2-.3.3-.3c0-.1.1-.1.2-.1s.5.1.5.5v1.9h.4c.1.1.2.1.2.3v.2h-.6v.6c0 .1-.1.2-.1.3h-.6s-.1-.1-.1-.2zM7.6 6.6h1.2V4.9z"/><path fill="#231f20" d="M14.3.7H1.7a1.2 1.2 0 0 0-.8.4 1.5 1.5 0 0 0-.2.9L3 10.5a1.1 1.1 0 0 0 1 .8h9.3v2h-11a1 1 0 0 0-1 1 1.1 1.1 0 0 0 1 1h12a1.1 1.1 0 0 0 1-1V1.7a1.1 1.1 0 0 0-1-1zM3 2.7h10.3v6.6H4.8z"/></symbol><symbol id="web-yarn-icons-04" viewBox="0 0 16 16"><path fill="#231f20" d="M8.2 7.5h1.9c.1 0 .1.1.1.2a.4.4 0 0 1-.1.3H7.3c0-.1-.1-.1-.1-.3a.3.3 0 0 1 .1-.2c0-.2.1-.2.2-.3l.7-.7.4-.4.4-.3.3-.4v-.7L9 4.5h-.3a.5.5 0 0 0-.6.4C8 4.8 8 4.9 8 5l-.2.3c0 .1-.1.1-.2.1h-.3c0-.1-.1-.1-.1-.3s.1-.2.1-.4l.3-.4.4-.4h.7l.8.2.3.2.3.4v.5a1.3 1.3 0 0 1-.1.6l-.4.5-.6.4c-.3.3-.5.4-.6.6z"/><path fill="#231f20" d="M14.3.7H1.7a1.2 1.2 0 0 0-.8.4 1.5 1.5 0 0 0-.2.9L3 10.5a1.1 1.1 0 0 0 1 .8h9.3v2h-11a1 1 0 0 0-1 1 1.1 1.1 0 0 0 1 1h12a1.1 1.1 0 0 0 1-1V1.7a1.1 1.1 0 0 0-1-1zM3 2.7h10.3v6.6H4.8z"/></symbol><symbol id="web-yarn-icons-07" viewBox="0 0 16 16"><path fill="#231f20" d="M9.7 4.5H8.3l-.2.9.8-.2h.5l.4.3.3.5a.7.7 0 0 1 .1.5 1.2 1.2 0 0 1-.2.8l-.5.5a1.2 1.2 0 0 1-.8.2c-.4 0-.7 0-.9-.2a1 1 0 0 1-.5-.4c0-.2-.1-.3-.1-.4a.4.4 0 0 1 .1-.3h.2c.2 0 .3.1.4.3l.3.4.5.2h.4a.5.5 0 0 0 .2-.4.6.6 0 0 0 .1-.4.7.7 0 0 0-.1-.5q0-.2-.3-.3h-.7l-.3.1h-.6v-.4l.3-1.4c0-.2.1-.3.1-.4h1.8c.3 0 .5.1.5.3a.4.4 0 0 1-.1.3z"/><path fill="#231f20" d="M14.3.7H1.7a1.2 1.2 0 0 0-.8.4 1.5 1.5 0 0 0-.2.9L3 10.5a1.1 1.1 0 0 0 1 .8h9.3v2h-11a1 1 0 0 0-1 1 1.1 1.1 0 0 0 1 1h12a1.1 1.1 0 0 0 1-1V1.7a1.1 1.1 0 0 0-1-1zM3 2.7h10.3v6.6H4.8z"/></symbol><symbol id="web-yarn-icons-05" viewBox="0 0 16 16"><path fill="#231f20" d="M8.6 5.5H9c.2-.1.2-.3.2-.5a.6.6 0 0 0-.1-.4h-.9c-.1.1-.1.2-.2.2a.4.4 0 0 1-.1.3h-.5a.3.3 0 0 1-.1-.2v-.4l.3-.4.4-.2h1.2l.5.2c.1.1.2.2.2.3a.9.9 0 0 1 .1.5.9.9 0 0 1-.1.5l-.4.4.4.2c.1.2.2.3.2.4a.6.6 0 0 1 .1.4.7.7 0 0 1-.1.5l-.3.5-.5.3H8l-.4-.4-.3-.3a.8.8 0 0 1-.1-.4v-.3h.6l.3.6.5.2H9l.3-.2a.9.9 0 0 0 .1-.5.8.8 0 0 0-.2-.5l-.5-.2h-.6c0-.1-.1-.2-.1-.3s.1-.1.1-.2h.5z"/><path fill="#231f20" d="M14.3.7H1.7a1.2 1.2 0 0 0-.8.4 1.5 1.5 0 0 0-.2.9L3 10.5a1.1 1.1 0 0 0 1 .8h9.3v2h-11a1 1 0 0 0-1 1 1.1 1.1 0 0 0 1 1h12a1.1 1.1 0 0 0 1-1V1.7a1.1 1.1 0 0 0-1-1zM3 2.7h10.3v6.6H4.8z"/></symbol><symbol id="web-yarn-icons-03" viewBox="0 0 16 16"><path fill="#231f20" d="M8.4 7.7V5c-.5.4-.8.6-1 .6h-.2c-.1 0-.1-.1-.1-.2s0-.2.1-.2l.3-.2.6-.4c.1-.1.3-.2.4-.4l.2-.3h.2c.1 0 .2 0 .2.1a.4.4 0 0 1 .1.3v3.3c0 .4-.1.6-.4.6h-.3c-.1-.2-.1-.3-.1-.5z"/><path fill="#231f20" d="M14.3.7H1.7a1.2 1.2 0 0 0-.8.4 1.5 1.5 0 0 0-.2.9L3 10.5a1.1 1.1 0 0 0 1 .8h9.3v2h-11a1 1 0 0 0-1 1 1.1 1.1 0 0 0 1 1h12a1.1 1.1 0 0 0 1-1V1.7a1.1 1.1 0 0 0-1-1zM3 2.7h10.3v6.6H4.8z"/></symbol><symbol id="web-yarn-icons-09" viewBox="0 0 16 16"><path fill="#231f20" d="M9 14.4a.9.9 0 0 1-.7-.3 1.1 1.1 0 0 1 0-1.5l4.4-4.4-3.1-3.1a1.1 1.1 0 0 1-1 1H2.9v4.1h3.5a1.1 1.1 0 0 1 1 1 1 1 0 0 1-1 1H1.9a.9.9 0 0 1-1-1v-6a.9.9 0 0 1 1-1h5.7V2.6a1 1 0 0 1 .6-.9 1.4 1.4 0 0 1 1.1.2l5.6 5.6a1.3 1.3 0 0 1 0 1.4l-5.2 5.2a.9.9 0 0 1-.7.3z"/></symbol><symbol id="web-yarn-icons-08" viewBox="0 0 16 16"><path fill="#231f20" d="M7.9 4.5H6.5v1a1.1 1.1 0 0 1 .7-.3h.6l.4.3.3.5a4.3 4.3 0 0 1 .1.5 1.9 1.9 0 0 1-.2.8l-.7.7-.8.2-.8-.2-.5-.5a.6.6 0 0 1-.1-.4c0-.1 0-.2.1-.2s.1-.1.2-.1a.5.5 0 0 1 .4.2.5.5 0 0 0 .3.5h.8l.3-.3c0-.2.1-.3.1-.5a4.3 4.3 0 0 0-.1-.5l-.3-.3h-.4c-.1 0-.3 0-.3.1l-.3.2h-.4c-.1 0-.2 0-.2-.1s-.1-.1-.1-.2v-.2l.2-1.4.2-.4h1.9c.3 0 .5.1.5.4v.2zm2.9 3h-.7V6.4H9v-.8h1.1V4.5h.7v1.1H12v.8h-1.2z"/><path fill="#231f20" d="M14.3.7H1.7a1.2 1.2 0 0 0-.8.4 1.5 1.5 0 0 0-.2.9L3 10.5a1.1 1.1 0 0 0 1 .8h9.3v2h-11a1 1 0 0 0-1 1 1.1 1.1 0 0 0 1 1h12a1.1 1.1 0 0 0 1-1V1.7a1.1 1.1 0 0 0-1-1zM3 2.7h10.3v6.6H4.8z"/></symbol><symbol id="web-yarn-icons-10" viewBox="0 0 16 16"><path fill="#231f20" d="M7.4 14.4a.9.9 0 0 1-.7-.3L1.1 8.5a1.2 1.2 0 0 1 0-1.4l5.2-5.2a1.2 1.2 0 0 1 1.4 0 1.1 1.1 0 0 1 0 1.5L3.3 7.8l3.1 3.1a1.1 1.1 0 0 1 1-1h5.7V5.7H9.6a1.1 1.1 0 0 1-1-1 1 1 0 0 1 1-1h4.5a.9.9 0 0 1 1 1v6.1a.9.9 0 0 1-1 1H8.4v1.6a1 1 0 0 1-.6.9z"/></symbol><symbol id="web-yarn-icons-01" viewBox="0 0 16 16"><path fill="#231f20" d="M15.5 13.7L11 9.2H9.5a4.2 4.2 0 0 1-3.2 1.4 4.1 4.1 0 0 1 0-8.1 4.1 4.1 0 0 1 4.1 4.1 1 1 0 0 0 1.1 1 1 1 0 0 0 1-1A6.2 6.2 0 0 0 6.3.5 6.1 6.1 0 0 0 .2 6.7a6.1 6.1 0 0 0 6.1 6.2 6.4 6.4 0 0 0 4-1.5l3.7 3.8a1.1 1.1 0 0 0 .8.3 1.1 1.1 0 0 0 .7-1.8z"/></symbol><symbol id="web-yarn-icons-02" viewBox="0 0 16 16"><path fill="#231f20" d="M14.3.7H1.7a1.2 1.2 0 0 0-.8.4 1.5 1.5 0 0 0-.2.9L3 10.5a1.1 1.1 0 0 0 1 .8h9.3v2h-11a1 1 0 0 0-1 1 1.1 1.1 0 0 0 1 1h12a1.1 1.1 0 0 0 1-1V1.7a1.1 1.1 0 0 0-1-1zM3 2.7h10.3v6.6H4.8z"/></symbol></svg>