<svg xmlns="http://www.w3.org/2000/svg" width="25.9" height="32.1" viewBox="0 0 25.9 32.1"><title>yarn logo</title><path d="M9.7,25h7.8a12.6,12.6,0,0,0,0-25.1A12.7,12.7,0,0,0,4.9,12.5a12.7,12.7,0,0,0,1.9,6.6H5.2a1.1,1.1,0,0,0-1.1,1.1,1.1,1.1,0,0,0,1.1,1H9.6a1,1,0,0,0,1.1-1.1V15.7a1,1,0,0,0-1.1-1h0a1,1,0,0,0-1,1.1v1.9a10.7,10.7,0,0,1-1.4-5.2A10.4,10.4,0,1,1,17.5,22.9H9.7a3.4,3.4,0,1,0,0,6.7H20.9a1.3,1.3,0,0,1,1.2,1.2h0a1.1,1.1,0,0,0,2.2,0h0a3.4,3.4,0,0,0-3.4-3.3H9.7a1.2,1.2,0,0,1-1.2-1.3A1.2,1.2,0,0,1,9.7,25Z" transform="translate(-4.1 0.1)" fill="#ef4323"/></svg>